<svg height="576" viewBox="0 0 576 576" width="576" xmlns="http://www.w3.org/2000/svg"><path d="m0 0h576v576h-576z" fill="#fff"/><path d="m128 342.9495h62.2222v8.8889h-62.2222z"/><path d="m128 325.9797h62.2222v8.8889h-62.2222z"/><path d="m145.7777 309.01h26.6667v8.889h-26.6667z"/><path d="m145.7777 292.0404h26.6667v8.8889h-26.6667z"/><path d="m145.7777 275.0706h26.6667v8.8889h-26.6667z"/><path d="m145.7777 258.101h26.6667v8.8889h-26.6667z"/><path d="m128 241.1313h62.2222v8.8889h-62.2222z"/><path d="m128 224.1617h62.2222v8.8889h-62.2222z"/><path d="m199.1112 334.8686h94.842a33.7121 33.7121 0 0 0 3.576-8.8889h-98.418z"/><path d="m286.5286 292.04h-69.64v8.8888h77.0547a34.0754 34.0754 0 0 0 -7.4147-8.8888z"/><path d="m216.8889 275.0706v8.8894h69.64a34.0774 34.0774 0 0 0 7.415-8.8889z"/><path d="m293.9532 241.1313h-94.842v8.8887h98.418a33.7148 33.7148 0 0 0 -3.576-8.8887z"/><path d="m264.5656 224.1617h-65.4544v8.8888h88.35a33.8138 33.8138 0 0 0 -22.8956-8.8888z"/><path d="m216.8889 258.101h26.6667v8.8889h-26.6667z"/><path d="m268.6061 266.99h28.71a33.9492 33.9492 0 0 0 1.189-8.8889h-29.899z"/><path d="m216.8889 309.01h26.6667v8.889h-26.6667z"/><path d="m268.6061 309.01v8.889h29.899a33.9488 33.9488 0 0 0 -1.189-8.889z"/><path d="m199.1112 351.75 65.4544.0879a33.6926 33.6926 0 0 0 22.8959-8.8888h-88.35z"/><path d="m376.875 351.838 3.104-8.889h-6.18z"/><path d="m370.962 334.869h11.854l3.12-8.889h-18.094z"/><path d="m365.005 317.899h23.768l3.121-8.889h-30.01z"/><path d="m359.047 300.929h35.684l3.12-8.889h-41.924z"/><path d="m323.556 266.99h48.024l-3.091-8.889h-44.933z"/><path d="m388.099 250.02h59.901v-8.889h-56.81z"/><path d="m397.091 224.162-3.091 8.889h54v-8.889z"/><path d="m305.7779 342.9495h44.4445v8.8889h-44.4445z"/><path d="m305.7779 325.9797h44.4445v8.8889h-44.4445z"/><path d="m323.5556 309.01h26.6667v8.889h-26.6667z"/><path d="m323.5556 292.0404h26.6667v8.8889h-26.6667z"/><path d="m430.222 258.101h-44.933l-3.091 8.889h48.024z"/><path d="m403.556 283.96h26.666v-8.889h-26.666-24.169l-2.498 7.185-2.499-7.185h-24.168-26.666v8.889h26.666v-8.169l2.868 8.169h47.598l2.868-8.168z"/><path d="m403.5555 292.0404h26.6667v8.8889h-26.6667z"/><path d="m403.5555 309.01h26.6667v8.889h-26.6667z"/><path d="m403.5555 325.9797h44.4445v8.8889h-44.4445z"/><path d="m403.5555 342.9495h44.4445v8.8889h-44.4445z"/><path d="m365.679 250.02-3.091-8.889h-56.81v8.889z"/><path d="m359.778 233.051-3.091-8.889h-50.909v8.889z"/></svg>